<svg version="1.1" viewBox="0.0 0.0 512.0 512.0" fill="none" stroke="none" stroke-linecap="square" stroke-miterlimit="10" xmlns:xlink="http://www.w3.org/1999/xlink" xmlns="http://www.w3.org/2000/svg"><clipPath id="p.0"><path d="m0 0l512.0 0l0 512.0l-512.0 0l0 -512.0z" clip-rule="nonzero"/></clipPath><g clip-path="url(#p.0)"><path fill="#000000" fill-opacity="0.0" d="m0 0l512.0 0l0 512.0l-512.0 0z" fill-rule="evenodd"/><path fill="#fbcc5b" d="m486.70615 512.8714l-461.4123 0c-6.7083435 0 -13.14193 -2.6648865 -17.885445 -7.4084167c-4.743515 -4.7434998 -7.408394 -11.1770935 -7.408394 -17.885437l0 -377.66678c0 -0.002357483 0.0019102517 -0.0042648315 0.0042666667 -0.0042648315l511.99573 0.0042648315l0 0c0.002380371 0 0.004272461 0.001914978 0.004272461 0.004272461l-0.004272461 377.6625l0 0c0 13.969421 -11.324432 25.293854 -25.293854 25.293854z" fill-rule="evenodd"/><path fill="#fbcc5b" d="m24.409025 0l463.18195 0c6.4736633 0 12.68222 2.571658 17.259796 7.149238c4.5775757 4.57758 7.149231 10.78611 7.149231 17.259787l0 68.063416c0 0.002357483 -0.0019226074 0.0042648315 -0.004272461 0.0042648315l-511.99573 -0.0042648315l7.3495313E-19 0c-0.002356415 0 -0.0042666667 -0.001914978 -0.0042666667 -0.0042648315l0.0042666667 -68.05915l0 0c0 -13.480732 10.928293 -24.409025 24.409025 -24.409025z" fill-rule="evenodd"/><path fill="#ffffff" d="m28.784777 47.46194l0 0c0 -12.724293 10.315077 -23.039368 23.03937 -23.039368l0 0c6.11042 0 11.970577 2.4273548 16.291294 6.7480736c4.3207245 4.3207207 6.7480774 10.180874 6.7480774 16.291294l0 0c0 12.724293 -10.315079 23.039371 -23.039371 23.039371l0 0c-12.724293 0 -23.03937 -10.315079 -23.03937 -23.039371z" fill-rule="evenodd"/><path fill="#ffffff" d="m84.90682 47.46194l0 0c0 -12.724293 10.315079 -23.039368 23.039375 -23.039368l0 0c6.11042 0 11.970573 2.4273548 16.29129 6.7480736c4.3207245 4.3207207 6.7480774 10.180874 6.7480774 16.291294l0 0c0 12.724293 -10.315079 23.039371 -23.039368 23.039371l0 0c-12.724297 0 -23.039375 -10.315079 -23.039375 -23.039371z" fill-rule="evenodd"/><path fill="#ffffff" d="m141.02887 47.46194l0 0c0 -12.724293 10.315079 -23.039368 23.039368 -23.039368l0 0c6.110428 0 11.970581 2.4273548 16.291306 6.7480736c4.320709 4.3207207 6.748062 10.180874 6.748062 16.291294l0 0c0 12.724293 -10.315063 23.039371 -23.039368 23.039371l0 0c-12.724289 0 -23.039368 -10.315079 -23.039368 -23.039371z" fill-rule="evenodd"/><path fill="#000000" fill-opacity="0.0" d="m0.026246719 110.77428l512.0 0l0 402.11023l-512.0 0z" fill-rule="evenodd"/><path fill="#ffffff" d="m218.70203 319.9919l-80.109375 0l0 65.5l93.0625 0l0 19.9375l-117.4375 0l0 -184.84377l116.171875 0l0 20.0625l-91.796875 0l0 59.406265l80.109375 0l0 19.9375zm184.46094 -1.015625q0 26.78125 -8.515625 46.140625q-8.5 19.359375 -23.859375 30.28125l33.015625 25.90625l-16.640625 15.359375l-38.96875 -30.984375q-9.140625 2.296875 -19.296875 2.296875q-21.828125 0 -38.71875 -10.734375q-16.890625 -10.734375 -26.21875 -30.59375q-9.328125 -19.875 -9.578125 -46.03125l0 -13.328125q0 -26.65625 9.265625 -47.09375q9.265625 -20.437515 26.203125 -31.29689q16.953125 -10.859375 38.796875 -10.859375q22.34375 0 39.28125 10.796875q16.953125 10.796875 26.09375 31.04689q9.140625 20.25 9.140625 47.28125l0 11.8125zm-24.375 -11.9375q0 -32.625 -13.015625 -50.328125q-13.0 -17.718765 -37.125 -17.718765q-22.984375 0 -36.25 17.593765q-13.265625 17.578125 -13.640625 48.796875l0 13.59375q0 31.734375 13.265625 50.015625q13.265625 18.28125 36.875 18.28125q23.609375 0 36.5625 -17.203125q12.953125 -17.203125 13.328125 -49.3125l0 -13.71875z" fill-rule="nonzero"/></g></svg>