<svg version="1.1" viewBox="0.0 0.0 512.0 512.0" fill="none" stroke="none" stroke-linecap="square" stroke-miterlimit="10" xmlns:xlink="http://www.w3.org/1999/xlink" xmlns="http://www.w3.org/2000/svg"><clipPath id="p.0"><path d="m0 0l512.0 0l0 512.0l-512.0 0l0 -512.0z" clip-rule="nonzero"/></clipPath><g clip-path="url(#p.0)"><path fill="#000000" fill-opacity="0.0" d="m0 0l512.0 0l0 512.0l-512.0 0z" fill-rule="evenodd"/><path fill="#fbcc5b" d="m486.70615 512.8714l-461.4123 0c-6.7083435 0 -13.14193 -2.6648865 -17.885445 -7.4084167c-4.743515 -4.7434998 -7.408394 -11.1770935 -7.408394 -17.885437l0 -377.66678c0 -0.002357483 0.0019102517 -0.0042648315 0.0042666667 -0.0042648315l511.99573 0.0042648315l0 0c0.002380371 0 0.004272461 0.001914978 0.004272461 0.004272461l-0.004272461 377.6625l0 0c0 13.969421 -11.324432 25.293854 -25.293854 25.293854z" fill-rule="evenodd"/><path fill="#ed1d24" d="m24.409025 0l463.18195 0c6.4736633 0 12.68222 2.571658 17.259796 7.149238c4.5775757 4.57758 7.149231 10.78611 7.149231 17.259787l0 68.063416c0 0.002357483 -0.0019226074 0.0042648315 -0.004272461 0.0042648315l-511.99573 -0.0042648315l7.3495313E-19 0c-0.002356415 0 -0.0042666667 -0.001914978 -0.0042666667 -0.0042648315l0.0042666667 -68.05915l0 0c0 -13.480732 10.928293 -24.409025 24.409025 -24.409025z" fill-rule="evenodd"/><path fill="#ffffff" d="m28.784777 47.46194l0 0c0 -12.724293 10.315077 -23.039368 23.03937 -23.039368l0 0c6.11042 0 11.970577 2.4273548 16.291294 6.7480736c4.3207245 4.3207207 6.7480774 10.180874 6.7480774 16.291294l0 0c0 12.724293 -10.315079 23.039371 -23.039371 23.039371l0 0c-12.724293 0 -23.03937 -10.315079 -23.03937 -23.039371z" fill-rule="evenodd"/><path fill="#ffffff" d="m84.90682 47.46194l0 0c0 -12.724293 10.315079 -23.039368 23.039375 -23.039368l0 0c6.11042 0 11.970573 2.4273548 16.29129 6.7480736c4.3207245 4.3207207 6.7480774 10.180874 6.7480774 16.291294l0 0c0 12.724293 -10.315079 23.039371 -23.039368 23.039371l0 0c-12.724297 0 -23.039375 -10.315079 -23.039375 -23.039371z" fill-rule="evenodd"/><path fill="#ffffff" d="m141.02887 47.46194l0 0c0 -12.724293 10.315079 -23.039368 23.039368 -23.039368l0 0c6.110428 0 11.970581 2.4273548 16.291306 6.7480736c4.320709 4.3207207 6.748062 10.180874 6.748062 16.291294l0 0c0 12.724293 -10.315063 23.039371 -23.039368 23.039371l0 0c-12.724289 0 -23.039368 -10.315079 -23.039368 -23.039371z" fill-rule="evenodd"/><path fill="#ed1d24" d="m0.026246719 110.77428l512.0 0l0 402.11023l-512.0 0z" fill-rule="evenodd"/><path fill="#000000" fill-opacity="0.0" d="m0 5.900898l512.0 0l0 489.6378l-512.0 0z" fill-rule="evenodd"/><path fill="#ffffff" d="m42.98111 286.8965q0 -27.171875 8.34375 -47.531265q8.34375 -20.375 21.921875 -33.953125q13.578125 -13.578125 31.234375 -20.5625q17.65625 -6.984375 36.28125 -6.984375q43.453125 0 68.671875 26.578125q25.21875 26.578125 25.21875 78.17189q0 5.046875 -0.390625 11.0625q-0.375 6.015625 -0.765625 10.671875l-131.14062 0q1.9375 17.84375 16.671875 28.328125q14.75 10.46875 39.578125 10.46875q15.90625 0 31.234375 -2.90625q15.328125 -2.90625 25.03125 -7.171875l7.765625 46.9375q-4.65625 2.328125 -12.421875 4.65625q-7.765625 2.328125 -17.265625 4.078125q-9.5 1.75 -20.375 2.90625q-10.859375 1.171875 -21.71875 1.171875q-27.546875 0 -47.921875 -8.140625q-20.375 -8.15625 -33.765625 -22.3125q-13.375 -14.171875 -19.78125 -33.5625q-6.40625 -19.40625 -6.40625 -41.90625zm135.8125 -22.125q-0.390625 -7.375 -2.53125 -14.35939q-2.125 -6.984375 -6.59375 -12.40625q-4.453125 -5.4375 -11.25 -8.921875q-6.796875 -3.5 -16.875 -3.5q-9.703125 0 -16.6875 3.296875q-6.984375 3.296875 -11.640625 8.734375q-4.65625 5.421875 -7.1875 12.609375q-2.515625 7.1718903 -3.671875 14.54689l76.4375 0zm149.76389 22.125q0 55.46875 41.125 55.46875q8.921875 0 17.65625 -2.3125q8.734375 -2.328125 14.15625 -5.828125l0 -104.375015q-4.265625 -0.765625 -10.859375 -1.34375q-6.59375 -0.59375 -14.359375 -0.59375q-23.671875 0 -35.703125 16.109375q-12.015625 16.093765 -12.015625 42.875015zm-58.984375 -1.5625q0 -23.671875 7.171875 -43.26564q7.1875 -19.59375 20.765625 -33.75q13.578125 -14.15625 33.359375 -21.921875q19.796875 -7.765625 45.015625 -7.765625q10.484375 0 21.921875 0.984375q11.453125 0.96875 22.5 2.515625q11.0625 1.546875 21.15625 3.6875q10.09375 2.125 17.84375 4.453125l0 268.89062l-57.8125 0l0 -76.828125q-9.6875 4.265625 -20.171875 6.59375q-10.46875 2.328125 -22.5 2.328125q-43.453125 0 -66.359375 -28.515625q-22.890625 -28.515625 -22.890625 -77.40625z" fill-rule="nonzero"/></g></svg>