<svg version="1.1" viewBox="0.0 0.0 800.0 500.0" fill="none" stroke="none" stroke-linecap="square" stroke-miterlimit="10" xmlns:xlink="http://www.w3.org/1999/xlink" xmlns="http://www.w3.org/2000/svg"><clipPath id="p.0"><path d="m0 0l800.0 0l0 500.0l-800.0 0l0 -500.0z" clip-rule="nonzero"/></clipPath><g clip-path="url(#p.0)"><path fill="#000000" fill-opacity="0.0" d="m0 0l800.0 0l0 500.0l-800.0 0z" fill-rule="evenodd"/><path fill="#ffffff" d="m24.409025 0l751.15045 0c6.473694 0 12.682251 2.571658 17.259827 7.149238c4.5775757 4.57758 7.149231 10.78611 7.149231 17.259787l0 68.063416c0 0.0036773682 -0.0029907227 0.006668091 -0.006652832 0.006668091l-799.96185 -0.006668091l1.1483191E-18 0c-0.0036817533 0 -0.006666404 -0.0029830933 -0.006666404 -0.006668091l0.006666404 -68.05675l0 0c0 -13.480732 10.928293 -24.409025 24.409025 -24.409025z" fill-rule="evenodd"/><path fill="#ed1d24" d="m28.784777 47.46194l0 0c0 -12.724293 10.315077 -23.039368 23.03937 -23.039368l0 0c6.11042 0 11.970577 2.4273548 16.291294 6.7480736c4.3207245 4.3207207 6.7480774 10.180874 6.7480774 16.291294l0 0c0 12.724293 -10.315079 23.039371 -23.039371 23.039371l0 0c-12.724293 0 -23.03937 -10.315079 -23.03937 -23.039371z" fill-rule="evenodd"/><path fill="#ed1d24" d="m84.90682 47.46194l0 0c0 -12.724293 10.315079 -23.039368 23.039375 -23.039368l0 0c6.11042 0 11.970573 2.4273548 16.29129 6.7480736c4.3207245 4.3207207 6.7480774 10.180874 6.7480774 16.291294l0 0c0 12.724293 -10.315079 23.039371 -23.039368 23.039371l0 0c-12.724297 0 -23.039375 -10.315079 -23.039375 -23.039371z" fill-rule="evenodd"/><path fill="#ed1d24" d="m141.02887 47.46194l0 0c0 -12.724293 10.315079 -23.039368 23.039368 -23.039368l0 0c6.110428 0 11.970581 2.4273548 16.291306 6.7480736c4.320709 4.3207207 6.748062 10.180874 6.748062 16.291294l0 0c0 12.724293 -10.315063 23.039371 -23.039368 23.039371l0 0c-12.724289 0 -23.039368 -10.315079 -23.039368 -23.039371z" fill-rule="evenodd"/><path fill="#ffffff" d="m0.041008398 110.77428l799.9685 0l0 389.22833l-799.9685 0z" fill-rule="evenodd"/><path fill="#000000" fill-opacity="0.0" d="m0.92975855 -10.9763775l799.9685 0l0 521.95276l-799.9685 0z" fill-rule="evenodd"/><path fill="#ed1d24" d="m173.26451 288.71298q0 -29.03125 8.90625 -50.796875q8.921875 -21.765625 23.4375 -36.28125q14.515625 -14.515625 33.375 -21.984375q18.874985 -7.46875 38.781235 -7.46875q46.4375 0 73.390625 28.40625q26.953125 28.40625 26.953125 83.5625q0 5.390625 -0.421875 11.8125q-0.40625 6.421875 -0.828125 11.40625l-140.14061 0q2.0625 19.078125 17.8125 30.28125q15.76561 11.1875 42.312485 11.1875q17.0 0 33.375 -3.109375q16.375 -3.109375 26.75 -7.671875l8.28125 50.171875q-4.96875 2.484375 -13.265625 4.96875q-8.296875 2.484375 -18.453125 4.34375q-10.15625 1.875 -21.765625 3.125q-11.609375 1.25 -23.21875 1.25q-29.4375 0 -51.218735 -8.703125q-21.765625 -8.71875 -36.078125 -23.84375q-14.296875 -15.140625 -21.140625 -35.875q-6.84375 -20.734375 -6.84375 -44.78125zm145.14061 -23.640625q-0.421875 -7.875 -2.703125 -15.34375q-2.28125 -7.46875 -7.046875 -13.265625q-4.765625 -5.8125 -12.03125 -9.53125q-7.25 -3.734375 -18.03125 -3.734375q-10.375 0 -17.84375 3.53125q-7.4531097 3.515625 -12.437485 9.328125q-4.96875 5.796875 -7.671875 13.46875q-2.6875 7.671875 -3.921875 15.546875l81.687485 0zm160.04984 23.640625q0 59.296875 43.953125 59.296875q9.53125 0 18.859375 -2.484375q9.34375 -2.5 15.140625 -6.234375l0 -111.53125q-4.5625 -0.84375 -11.609375 -1.453125q-7.046875 -0.625 -15.34375 -0.625q-25.296875 0 -38.15625 17.21875q-12.84375 17.203125 -12.84375 45.8125zm-63.03125 -1.65625q0 -25.296875 7.671875 -46.234375q7.671875 -20.953125 22.1875 -36.078125q14.515625 -15.140625 35.65625 -23.421875q21.15625 -8.296875 48.109375 -8.296875q11.1875 0 23.421875 1.03125q12.234375 1.03125 24.046875 2.703125q11.828125 1.65625 22.609375 3.9375q10.78125 2.265625 19.0625 4.765625l0 287.35938l-61.78125 0l0 -82.109375q-10.359375 4.5625 -21.5625 7.046875q-11.1875 2.484375 -24.046875 2.484375q-46.4375 0 -70.90625 -30.46875q-24.46875 -30.484375 -24.46875 -82.71875z" fill-rule="nonzero"/></g></svg>