<svg version="1.1" viewBox="0.0 0.0 512.0 512.0" fill="none" stroke="none" stroke-linecap="square" stroke-miterlimit="10" xmlns:xlink="http://www.w3.org/1999/xlink" xmlns="http://www.w3.org/2000/svg"><clipPath id="p.0"><path d="m0 0l512.0 0l0 512.0l-512.0 0l0 -512.0z" clip-rule="nonzero"/></clipPath><g clip-path="url(#p.0)"><path fill="#55595c" d="m0 0l512.0 0l0 512.0l-512.0 0z" fill-rule="evenodd"/><path fill="#000000" fill-opacity="0.0" d="m0 0l512.0 0l0 512.0l-512.0 0z" fill-rule="evenodd"/><path fill="#ffffff" d="m183.39844 276.16l0 -40.09375l5.3125 0l0 40.09375l-5.3125 0zm14.027344 0l0 -29.046875l4.40625 0l0 4.078125q1.375 -2.125 3.640625 -3.421875q2.265625 -1.3125 5.171875 -1.3125q3.21875 0 5.28125 1.34375q2.0625 1.34375 2.921875 3.75q3.4375 -5.09375 8.96875 -5.09375q4.3125 0 6.640625 2.40625q2.328125 2.390625 2.328125 7.359375l0 19.9375l-4.90625 0l0 -18.296875q0 -2.953125 -0.484375 -4.25q-0.46875 -1.296875 -1.734375 -2.09375q-1.25 -0.796875 -2.9375 -0.796875q-3.0625 0 -5.09375 2.046875q-2.015625 2.03125 -2.015625 6.515625l0 16.875l-4.921875 0l0 -18.875q0 -3.28125 -1.203125 -4.921875q-1.203125 -1.640625 -3.9375 -1.640625q-2.078125 0 -3.84375 1.09375q-1.765625 1.09375 -2.5625 3.203125q-0.796875 2.109375 -0.796875 6.078125l0 15.0625l-4.921875 0zm65.60156 -3.578125q-2.734375 2.3125 -5.265625 3.28125q-2.53125 0.953125 -5.421875 0.953125q-4.78125 0 -7.359375 -2.328125q-2.5625 -2.34375 -2.5625 -5.984375q0 -2.140625 0.96875 -3.890625q0.96875 -1.765625 2.53125 -2.828125q1.578125 -1.078125 3.546875 -1.625q1.453125 -0.375 4.375 -0.734375q5.96875 -0.71875 8.78125 -1.703125q0.03125 -1.0 0.03125 -1.28125q0 -3.0 -1.40625 -4.234375q-1.875 -1.671875 -5.59375 -1.671875q-3.484375 0 -5.140625 1.21875q-1.640625 1.21875 -2.4375 4.3125l-4.8125 -0.65625q0.65625 -3.09375 2.15625 -4.984375q1.5 -1.90625 4.34375 -2.9375q2.84375 -1.03125 6.59375 -1.03125q3.71875 0 6.046875 0.875q2.328125 0.875 3.421875 2.203125q1.09375 1.328125 1.53125 3.359375q0.234375 1.25 0.234375 4.53125l0 6.5625q0 6.859375 0.3125 8.6875q0.328125 1.8125 1.25 3.484375l-5.140625 0q-0.765625 -1.53125 -0.984375 -3.578125zm-0.40625 -11.0q-2.6875 1.09375 -8.046875 1.859375q-3.03125 0.4375 -4.296875 0.984375q-1.25 0.546875 -1.9375 1.609375q-0.671875 1.046875 -0.671875 2.328125q0 1.96875 1.484375 3.28125q1.484375 1.3125 4.359375 1.3125q2.84375 0 5.0625 -1.234375q2.21875 -1.25 3.25 -3.40625q0.796875 -1.671875 0.796875 -4.921875l0 -1.8125zm11.707031 16.984375l4.78125 0.71875q0.296875 2.203125 1.671875 3.21875q1.828125 1.375 5.0 1.375q3.421875 0 5.28125 -1.375q1.859375 -1.359375 2.515625 -3.828125q0.375 -1.5 0.34375 -6.3125q-3.21875 3.796875 -8.03125 3.796875q-5.984375 0 -9.265625 -4.3125q-3.28125 -4.328125 -3.28125 -10.375q0 -4.15625 1.5 -7.671875q1.5 -3.515625 4.359375 -5.421875q2.859375 -1.921875 6.71875 -1.921875q5.140625 0 8.46875 4.15625l0 -3.5l4.546875 0l0 25.109375q0 6.78125 -1.390625 9.609375q-1.375 2.828125 -4.375 4.46875q-2.984375 1.640625 -7.359375 1.640625q-5.203125 0 -8.40625 -2.34375q-3.1875 -2.328125 -3.078125 -7.03125zm4.0625 -17.453125q0 5.71875 2.265625 8.34375q2.28125 2.625 5.703125 2.625q3.390625 0 5.6875 -2.609375q2.296875 -2.609375 2.296875 -8.1875q0 -5.328125 -2.375 -8.03125q-2.359375 -2.71875 -5.703125 -2.71875q-3.28125 0 -5.578125 2.671875q-2.296875 2.65625 -2.296875 7.90625zm47.86328 5.6875l5.078125 0.640625q-1.203125 4.453125 -4.453125 6.921875q-3.25 2.453125 -8.3125 2.453125q-6.375 0 -10.109375 -3.921875q-3.734375 -3.921875 -3.734375 -11.015625q0 -7.328125 3.765625 -11.375q3.78125 -4.046875 9.796875 -4.046875q5.828125 0 9.515625 3.96875q3.703125 3.96875 3.703125 11.15625q0 0.4375 -0.03125 1.3125l-21.65625 0q0.265625 4.78125 2.703125 7.328125q2.4375 2.546875 6.078125 2.546875q2.703125 0 4.609375 -1.421875q1.921875 -1.421875 3.046875 -4.546875zm-16.171875 -7.953125l16.21875 0q-0.328125 -3.65625 -1.859375 -5.5q-2.34375 -2.84375 -6.09375 -2.84375q-3.390625 0 -5.703125 2.28125q-2.3125 2.265625 -2.5625 6.0625z" fill-rule="nonzero"/></g></svg>